PathFileType	4	(X/Y/Z)	51_1_51_p1_0-314_filt_butterworth.trc
DataRate	CameraRate	NumFrames	NumMarkers	Units	OrigDataRate	OrigDataStartFrame	OrigNumFrames
52.0	52.0	4	27	m	52.0	0	314
Frame#	Time	RHip			RKnee			RAnkle			RBigToe			RSmallToe			RHeel			LHip			LKnee			LAnkle			LBigToe			LSmallToe			LHeel			Neck			Head			Nose			RShoulder			RElbow			RWrist			RThumb			RIndex			RPinky			LShoulder			LElbow			LWrist			LThumb			LIndex			LPinky			
		X1	Y1	Z1	X2	Y2	Z2	X3	Y3	Z3	X4	Y4	Z4	X5	Y5	Z5	X6	Y6	Z6	X7	Y7	Z7	X8	Y8	Z8	X9	Y9	Z9	X10	Y10	Z10	X11	Y11	Z11	X12	Y12	Z12	X13	Y13	Z13	X14	Y14	Z14	X15	Y15	Z15	X16	Y16	Z16	X17	Y17	Z17	X18	Y18	Z18	X19	Y19	Z19	X20	Y20	Z20	X21	Y21	Z21	X22	Y22	Z22	X23	Y23	Z23	X24	Y24	Z24	X25	Y25	Z25	X26	Y26	Z26	X27	Y27	Z27	
0	0.0	0.08388327171562728	0.8452954539891447	0.6658434888356193	0.07363365423631404	0.40300776140467626	0.6645304640832694	0.05983548102752776	-0.025233886888036336	0.6806264372352271	0.045622236510065854	-0.0010204437572319952	0.4724392366068494	0.10798624158486216	-0.024281985362719256	0.5056464429142514	0.0371379286762937	-0.09840393463379817	0.7624650227679514	-0.11175961845584872	0.8149472146777194	0.6741010758375516	-0.10625984103497924	0.4072695739981974	0.6625305655621478	-0.11209602506215355	0.0013967084618193154	0.6576028968071997	-0.10710446179448509	0.0028653356370891975	0.4676112236248573	-0.15484571154022472	-0.017344399342137697	0.5174619605154835	-0.10692897347553502	-0.08059862749856302	0.716221796506037	-0.007806654419590122	1.3761929806653426	0.6780992326114436	0.01063714660668165	1.6047418786987755	0.6421208878726069	0.005030128680295977	1.500210741022938	0.5598967193811291	0.13412687410020055	1.3032201162767079	0.6481229008737726	0.1734356400961738	1.0316465238816965	0.6320134764908903	0.04636594849876342	0.8608393062224429	0.5561381155820784	-0.035325894919447175	0.7922562013898822	0.5410324949406455	-0.05203917397889785	0.758983632101593	0.564084615383608	-0.03934808372353016	0.7698275434041587	0.5377386951592774	-0.15334870911617737	1.2876184187733772	0.6918216637993982	-0.17853067040955836	1.0492840208120846	0.6070166719816882	-0.05093813026771874	0.8935663182739927	0.5430655269208295	0.04400703462178364	0.8619229757414505	0.45965370613794604	0.038642426063286196	0.8299644106955039	0.46783006545979683	-0.0060771931898489125	0.8205317773833041	0.4786657671830163	
1	0.0192307692307692	0.08388888474205886	0.8478966661856459	0.6649000649139454	0.07428875741259024	0.4033756926073324	0.66510355817796	0.05999556859684915	-0.026007137620546864	0.6808470850848312	0.04581287374386814	-0.0008054887866223437	0.47263725165301185	0.10730967799069477	-0.020847088530496112	0.5056439674375977	0.03722615168382316	-0.0983920604281631	0.7624241615322563	-0.10853316145920522	0.8204310431239772	0.668380747626722	-0.1061727658332936	0.40631867615043693	0.6626154638541761	-0.11192242710825057	0.0004280054551557555	0.6573267294425289	-0.10838574300386102	0.011321214353702605	0.46267617909790393	-0.15794606173241302	-0.016629842005732226	0.5161983599018074	-0.10671459227353453	-0.08168944967747016	0.7167174275429223	-0.0036353843095551265	1.3773592251775189	0.6721487003654556	0.01065536017750238	1.6046682675998454	0.6421258514447465	0.007127908285478766	1.5010317920397067	0.5542436627056031	0.1338509069230684	1.3033755411834909	0.6471830742618178	0.17303193520824203	1.0320216385697325	0.6307572698739201	0.04641500209318173	0.8613107170328962	0.5560150482697304	-0.034867500133100575	0.7947515690687723	0.5356113814575773	-0.0505111100966555	0.7611390309651783	0.5576461030226065	-0.03514509339342196	0.7686384601593449	0.526165868569423	-0.15458007881735786	1.289328366369493	0.6843700577156966	-0.1751343593614916	1.048522555323483	0.6015438728810534	-0.04638137397055964	0.8979152840736322	0.5311836292941379	0.04215568730072484	0.8607728871361222	0.4585067511256839	0.03822548226584906	0.8294035938330941	0.4611115040661223	-0.005650610213690095	0.8182748098987505	0.4809502844205975	
2	0.0384615384615384	0.08398696767815571	0.8498876558159368	0.6642995984173325	0.07484671059849764	0.4035820476153676	0.6656033718420504	0.060120794438498784	-0.026598804378841892	0.681014776940502	0.04591271660719417	-0.0006899222887728762	0.4727385177279285	0.1069988333333911	-0.018649214238190284	0.5053606763539368	0.037294956978605055	-0.0983715077895922	0.7623822962120749	-0.10606929423609238	0.8247701052358475	0.6637029309948279	-0.10608997805770294	0.40559073994517914	0.6626907364899421	-0.1117752690054091	-0.0003638280044808706	0.6571999546231734	-0.1090141643442972	0.01634971464114153	0.45947383363650457	-0.1596452649390096	-0.016215054494969974	0.5155072651508962	-0.10653548296220339	-0.0826476052552076	0.7171392551781973	-0.0009011867175955099	1.3780973485374526	0.6684282189046691	0.010670725592337442	1.604620142632625	0.6421199344934503	0.008452350600534609	1.501551582236545	0.5506643068961183	0.13403518626214875	1.3032208425236376	0.6478607031381407	0.17242424388950578	1.0325867042302026	0.6287980416987262	0.046437375286916514	0.8613437432631765	0.5560222595936357	-0.03413009365869091	0.7961546790047342	0.5319959339380659	-0.049243706315966265	0.7620791949419531	0.5534339637976556	-0.03228779495333815	0.76791754897457	0.5184098651279767	-0.15532206080387945	1.2904582177531272	0.6797733584748398	-0.17258194086893472	1.0485311557517663	0.5982809061533558	-0.043505238554773326	0.9006704626220033	0.5236753105331551	0.04099377061758033	0.8594677498887642	0.45763200710114393	0.038462991605575356	0.8288396547081559	0.45677534273777254	-0.004762007535941268	0.8170038672598209	0.48164031250815603	
3	0.0576923076923076	0.08416761624339543	0.8513171195225063	0.6640001113564319	0.07531459058609276	0.4036449965727017	0.6660341821661274	0.06021406542587447	-0.02702360107507583	0.6811339415567339	0.04594108097255138	-0.0006512694564783927	0.47276357221305093	0.10696990270867962	-0.017513970447100173	0.5048872184675388	0.037346049788402925	-0.09834311147524986	0.7623395620042275	-0.10429310483177942	0.8280763897619556	0.6599714845165459	-0.10601217420927772	0.40506861802078	0.6627560821194736	-0.11165230588892928	-0.0009901433553520522	0.6572060748189057	-0.10913908951531526	0.018633463098941344	0.4576670329702552	-0.1602076766295522	-0.016047533486301634	0.5152812130764556	-0.10638875691762273	-0.08348094201489328	0.7174927259015216	0.0006618889520073256	1.3784905887446521	0.6665001395129403	0.010683768261465016	1.6045935201773285	0.6421057688425229	0.00915419146453235	1.5018298195344701	0.5487523488193682	0.1345548315688639	1.3028417135692267	0.6497154779752261	0.17169305979712723	1.0332671767924384	0.626405206808012	0.04643975814829515	0.8610585324187789	0.556122126366241	-0.033202830701189075	0.7966977607531396	0.5298372118820456	-0.04822253160704286	0.7620665476336271	0.5510532557883592	-0.030530427633494537	0.7675232624760832	0.5137868788682619	-0.15565447471976737	1.2910891606477108	0.6775949520650943	-0.1708002079103255	1.0491505389993896	0.5967369149061444	-0.041929931153027664	0.9021897920989608	0.519552430316346	0.040330577756880266	0.8579907126227334	0.4571002993853679	0.03907853501841601	0.8282138044411421	0.4545281233440533	-0.003599111847380002	0.8164672292653192	0.48121721973923953	
